<svg width="265" height="219" viewBox="0 0 265 219" fill="none" xmlns="http://www.w3.org/2000/svg">
<path d="M46.425 82.2509L132.102 30.8444L90.9773 1.71414L5.49673 51.7119C1.4806 53.7939 0.415924 56.4 0.159124 61.2435L0.0167495 103.401C-0.164051 108.611 1.08379 112.748 5.47419 114.528L89.2638 162.788L132.102 131.944V77.1103L87.5502 104.527L46.425 82.2509Z" fill="url(#paint0_linear_101_24)"/>
<path d="M217.78 80.5368L132.206 132.016V186.954L184.861 218.063V154.269L258.619 111.127C262.205 109.381 264.014 106.151 264.046 101.439V57.7815C263.885 53.9231 262.333 50.4355 257.727 47.7623L174.941 0L132.102 30.8439V85.6775L176.655 58.2607L217.78 80.5368Z" fill="url(#paint1_linear_101_24)"/>
<path fill-rule="evenodd" clip-rule="evenodd" d="M169.989 190.886C171.808 190.886 173.284 192.362 173.284 194.181C173.284 196.001 171.808 197.477 169.989 197.477C168.17 197.477 166.694 196.001 166.694 194.181C166.694 192.362 168.17 190.886 169.989 190.886ZM170.429 133.346C172.248 133.346 173.725 134.822 173.725 136.641C173.725 138.46 172.248 139.936 170.429 139.936C168.61 139.936 167.134 138.46 167.134 136.641C167.134 134.822 168.61 133.346 170.429 133.346ZM241.374 90.4126C243.193 90.4126 244.669 91.8888 244.669 93.7079C244.669 95.527 243.193 97.0032 241.374 97.0032C239.555 97.0032 238.078 95.527 238.078 93.7079C238.078 91.8888 239.555 90.4126 241.374 90.4126ZM241.786 61.5787C243.605 61.5787 245.081 63.0548 245.081 64.8739C245.081 66.6931 243.605 68.1692 241.786 68.1692C239.967 68.1692 238.49 66.6931 238.49 64.8739C238.49 63.0548 239.967 61.5787 241.786 61.5787ZM178.256 25.8363C180.075 25.8363 181.551 27.3124 181.551 29.1315C181.551 30.9506 180.075 32.4268 178.256 32.4268C176.437 32.4268 174.96 30.9506 174.96 29.1315C174.96 27.3124 176.437 25.8363 178.256 25.8363ZM90.5182 127.579C92.3373 127.579 93.8136 129.055 93.8136 130.874C93.8136 132.693 92.3373 134.169 90.5182 134.169C88.6992 134.169 87.2229 132.693 87.2229 130.874C87.2229 129.055 88.6992 127.579 90.5182 127.579ZM26.2597 95.8615C28.0789 95.8615 29.555 97.3378 29.555 99.1568C29.555 100.976 28.0789 102.452 26.2597 102.452C24.4406 102.452 22.9645 100.976 22.9645 99.1568C22.9645 97.3378 24.4406 95.8615 26.2597 95.8615ZM25.436 60.8488C27.255 60.8488 28.7312 62.3251 28.7312 64.1442C28.7312 65.9632 27.255 67.4395 25.436 67.4395C23.6169 67.4395 22.1406 65.9632 22.1406 64.1442C22.1406 62.3251 23.6169 60.8488 25.436 60.8488ZM91.7539 21.7171C93.573 21.7171 95.0493 23.1934 95.0493 25.0124C95.0493 26.8315 93.573 28.3078 91.7539 28.3078C89.9349 28.3078 88.4586 26.8315 88.4586 25.0124C88.4586 23.1934 89.9349 21.7171 91.7539 21.7171Z" fill="#009EE0"/>
<path fill-rule="evenodd" clip-rule="evenodd" d="M91.2456 25.0922L25.78 63.9489L25.9812 99.0104L90.4754 130.099L177.978 28.2232L178.221 27.9387L178.546 28.1244L241.695 64.149L241.919 64.2763L241.924 64.5371L242.348 93.3567L242.352 93.6161L242.126 93.7507L170.72 136.003L170.359 194.105L169.454 194.096L169.818 135.739L169.822 135.483L170.042 135.354L241.441 93.1068L241.024 64.8061L178.424 29.0948L90.9376 130.952L90.7102 131.216L90.397 131.065L25.3374 99.7022L25.0838 99.5796L25.0811 99.2998L24.8728 63.6991L24.8687 63.4383L25.0949 63.3049L90.7868 24.3138L91.2456 25.0922Z" fill="#009EE0"/>
<defs>
<linearGradient id="paint0_linear_101_24" x1="0" y1="1.71414" x2="132.102" y2="1.71414" gradientUnits="userSpaceOnUse">
<stop stop-color="#102A83"/>
<stop offset="1" stop-color="#009EE0"/>
</linearGradient>
<linearGradient id="paint1_linear_101_24" x1="132.102" y1="0" x2="264.046" y2="0" gradientUnits="userSpaceOnUse">
<stop stop-color="#102A83"/>
<stop offset="1" stop-color="#009EE0"/>
</linearGradient>
</defs>
</svg>
