<?xml version="1.0" encoding="UTF-8" standalone="no"?>
<svg
   version="1.1"
   width="841.88977pt"
   height="595.27557pt"
   id="svg17"
   viewBox="0 0 841.88977 595.27557"
   sodipodi:docname="cin完稿.cdr"
   xmlns:inkscape="http://www.inkscape.org/namespaces/inkscape"
   xmlns:sodipodi="http://sodipodi.sourceforge.net/DTD/sodipodi-0.dtd"
   xmlns="http://www.w3.org/2000/svg"
   xmlns:svg="http://www.w3.org/2000/svg">
  <sodipodi:namedview
     id="namedview17"
     pagecolor="#ffffff"
     bordercolor="#000000"
     borderopacity="0.25"
     inkscape:showpageshadow="2"
     inkscape:pageopacity="0.0"
     inkscape:pagecheckerboard="0"
     inkscape:deskcolor="#d1d1d1"
     inkscape:document-units="pt" />
  <path
     d="m 243.4781,355.775 v 42.0382 h 8.4057 V 355.775 Z"
     style="fill:#4c638b;fill-rule:evenodd"
     id="path1" />
  <path
     d="m 261.7641,355.775 h 8.4056 l 22.3716,28.366 -0.1038,-28.3661 8.4055,4e-4 -2e-4,41.9311 v 0.1068 h -8.3275 l -22.3456,-28.7983 v 28.7983 h -8.4056 z"
     style="fill:#4c638b;fill-rule:evenodd"
     id="path2" />
  <path
     d="m 235.6625,389.2398 -5e-4,8.3889 -35.531,-2e-4 c -6.9975,-0.0334 -8.467,-5.5658 -8.7208,-8.389 l 0.0239,-25.5691 c 0,-2.9376 0.668,-8.4485 8.5537,-8.4485 l 35.6747,3e-4 -4e-4,8.3889 -31.3231,-1e-4 c -2.1039,-0.1575 -4.2325,2.5345 -4.3512,5.2137 v 15.4598 c 0.1896,2.2733 2.6143,4.455 4.2216,4.9551 z"
     style="fill:#4c638b;fill-rule:evenodd"
     id="path3" />
  <path
     d="m 397.7292,355.4986 -3e-4,8.3889 -29.1379,-2e-4 c -0.9935,0.145 -1.6127,0.7583 -1.8576,1.84 v 5.0331 c 0.0888,1.0634 0.8017,1.8145 2.1384,2.2539 l 21.0744,2e-4 v -0.0434 c 4.2702,0 8.8574,1.8959 9.1816,5.7672 0.3761,4.4891 0.3615,8.9788 0.002,13.4689 -0.2993,3.7342 -5.0731,5.6296 -9.1831,5.6296 l -32.5495,-0.024 3e-4,-8.3889 30.4791,10e-5 c 1.0647,-0.0177 1.7547,-0.8158 2.0701,-2.3938 v -4.6819 c 0.062,-0.8626 -0.1268,-2.1546 -2.07,-2.2355 l -21.4877,-10e-5 c -1.8349,-0.2902 -7.0385,-1.4662 -7.4756,-6.1685 -0.3816,-4.1043 -0.6226,-8.2083 0.1192,-12.3123 0.7529,-4.1652 4.1916,-6.6699 7.7013,-6.2487 z"
     style="fill:#4c638b;fill-rule:evenodd"
     id="path4" />
  <path
     d="m 437.8273,363.8875 -31.029,-2e-4 3e-4,-8.389 32.7797,3e-4 c 4.7366,0.2817 8.0151,0.2358 8.1074,8.2441 v 9.447 c -0.3383,6.844 -1.6126,8.2138 -8.1045,8.2135 l -24.3772,-1e-4 -2e-4,16.4103 -8.4055,-4e-4 c 1e-4,-8.2665 1e-4,-16.5327 3e-4,-24.7989 l 31.0287,2e-4 c 1.1907,0.0145 1.7742,-0.6287 1.751,-1.9292 v -5.501 c -0.0247,-1.1032 -0.674,-1.6055 -1.751,-1.6966 z"
     style="fill:#4c638b;fill-rule:evenodd"
     id="path5" />
  <path
     d="m 486.5045,381.8929 -24.1847,-3e-4 v 15.9851 h -7.8158 v -42.5636 h 7.8158 v 18.1218 l 24.1847,3e-4 v -18.1221 h 7.8157 v 42.5636 h -7.8157 z"
     style="fill:#4c638b;fill-rule:evenodd"
     id="path6" />
  <path
     d="m 580.8836,355.4986 c 12.7008,0.0741 12.0002,25.569 0.0178,25.7202 h -0.7384 l 9.5585,16.6843 h -9.2364 l -9.5611,-16.6843 -13.6352,-10e-5 v 16.643 h -7.8157 v -25.032 h 0.0741 7.7416 21.4355 c 1.7746,0.0955 2.0702,-0.9642 2.1544,-2.1889 v -4.4399 c -0.0999,-1.1165 -0.5284,-1.9866 -1.6809,-2.3135 l -29.651,-1e-4 3e-4,-8.389 z"
     style="fill:#4c638b;fill-rule:evenodd"
     id="path7" />
  <path
     d="m 597.4,372.8297 31.3368,3e-4 -3e-4,8.3889 -23.5207,-2e-4 v 5.9391 c -0.0463,1.4783 0.5821,2.2337 1.8852,2.2661 l 29.0092,3e-4 -4e-4,8.3889 -31.1772,-3e-4 c -5.2095,0.1596 -7.7202,-2.4526 -7.5322,-7.8359 h -4e-4 v -8.7582 z m 38.7102,-17.3311 -4e-4,8.3889 -38.7098,-2e-4 4e-4,-8.389 z"
     style="fill:#4c638b;fill-rule:evenodd"
     id="path8" />
  <path
     d="m 502.5446,372.8297 31.3368,3e-4 -3e-4,8.3889 -23.5208,-2e-4 v 5.9391 c -0.0463,1.4783 0.5821,2.2337 1.8853,2.2661 l 29.0092,3e-4 -5e-4,8.3889 -31.1771,-3e-4 c -5.2095,0.1596 -7.7202,-2.4526 -7.5322,-7.8359 h -4e-4 v -8.7582 z m 38.7102,-17.3311 -5e-4,8.3889 -38.7097,-2e-4 4e-4,-8.389 z"
     style="fill:#4c638b;fill-rule:evenodd"
     id="path9" />
  <path
     d="m 312.3686,372.8297 31.3368,3e-4 -3e-4,8.3889 -23.5207,-2e-4 v 5.9391 c -0.0463,1.4783 0.5821,2.2337 1.8853,2.2661 l 29.0091,3e-4 -4e-4,8.3889 -31.1771,-3e-4 c -5.2096,0.1596 -7.7202,-2.4526 -7.5323,-7.8359 h -4e-4 v -8.7582 z m 38.7102,-17.3311 -4e-4,8.3889 -38.7098,-2e-4 4e-4,-8.389 z"
     style="fill:#4c638b;fill-rule:evenodd"
     id="path10" />
  <defs
     id="defs11">
    <linearGradient
       id="grad1">
      <stop
         offset="0%"
         stop-color="#102a83"
         stop-opacity="1.0000"
         id="stop10" />
      <stop
         offset="100%"
         stop-color="#009ee0"
         stop-opacity="1.0000"
         id="stop11" />
    </linearGradient>
  </defs>
  <path
     d="m 339.8689,229.3259 64.2581,-38.5549 -30.8439,-21.8477 -64.1104,37.4983 c -3.0121,1.5615 -3.8106,3.5161 -4.0032,7.1487 l -0.1068,31.6184 c -0.1356,3.9071 0.8003,7.0099 4.0931,8.3453 l 62.8422,36.1946 32.129,-23.133 v -41.1252 l -33.4142,20.5626 z"
     style="fill:url(#grad1)"
     id="path11" />
  <defs
     id="defs13">
    <linearGradient
       id="grad2">
      <stop
         offset="0%"
         stop-color="#102a83"
         stop-opacity="1.0000"
         id="stop12" />
      <stop
         offset="100%"
         stop-color="#009ee0"
         stop-opacity="1.0000"
         id="stop13" />
    </linearGradient>
  </defs>
  <path
     d="m 468.3852,228.0403 -64.1808,38.6096 v 41.2031 l 39.4918,23.3317 v -47.845 l 55.3185,-32.3569 c 2.6895,-1.3091 4.0463,-3.7318 4.0699,-7.2661 v -32.7429 c -0.121,-2.8938 -1.2848,-5.5095 -4.739,-7.5144 l -62.0895,-35.8217 -32.1291,23.1329 v 41.1252 l 33.4143,-20.5626 z"
     style="fill:url(#grad2)"
     id="path13" />
  <path
     d="m 373.0915,186.2264 -49.4135,29.3132 v 26.3818 l 48.576,24.288 65.7451,-77.0516 48.1572,27.2193 v 22.1942 l -54.0198,31.8256 v 43.9688"
     style="fill:none"
     id="path14" />
  <path
     d="m 432.5418,310.8023 c 1.3643,0 2.4715,1.1071 2.4715,2.4714 0,1.3644 -1.1072,2.4715 -2.4715,2.4715 -1.3643,0 -2.4715,-1.1071 -2.4715,-2.4715 0,-1.3643 1.1072,-2.4714 2.4715,-2.4714 z m 0.3304,-43.1554 c 1.3643,0 2.4715,1.1072 2.4715,2.4715 0,1.3643 -1.1072,2.4715 -2.4715,2.4715 -1.3643,0 -2.4715,-1.1072 -2.4715,-2.4715 0,-1.3643 1.1072,-2.4715 2.4715,-2.4715 z m 53.2082,-32.1998 c 1.3644,0 2.4715,1.1072 2.4715,2.4715 0,1.3643 -1.1071,2.4715 -2.4715,2.4715 -1.3643,0 -2.4714,-1.1072 -2.4714,-2.4715 0,-1.3643 1.1071,-2.4715 2.4714,-2.4715 z m 0.309,-21.6254 c 1.3643,0 2.4715,1.1071 2.4715,2.4714 0,1.3644 -1.1072,2.4715 -2.4715,2.4715 -1.3643,0 -2.4715,-1.1071 -2.4715,-2.4715 0,-1.3643 1.1072,-2.4714 2.4715,-2.4714 z M 438.742,187.0149 c 1.3643,0 2.4714,1.1071 2.4714,2.4714 0,1.3643 -1.1071,2.4715 -2.4714,2.4715 -1.3644,0 -2.4715,-1.1072 -2.4715,-2.4715 0,-1.3643 1.1071,-2.4714 2.4715,-2.4714 z m -65.8032,76.3069 c 1.3643,0 2.4715,1.1072 2.4715,2.4715 0,1.3643 -1.1072,2.4715 -2.4715,2.4715 -1.3643,0 -2.4715,-1.1072 -2.4715,-2.4715 0,-1.3643 1.1072,-2.4715 2.4715,-2.4715 z m -48.1939,-23.788 c 1.3644,0 2.4715,1.1072 2.4715,2.4715 0,1.3643 -1.1071,2.4715 -2.4715,2.4715 -1.3643,0 -2.4714,-1.1072 -2.4714,-2.4715 0,-1.3643 1.1071,-2.4715 2.4714,-2.4715 z m -0.6178,-26.2595 c 1.3643,0 2.4714,1.1072 2.4714,2.4715 0,1.3643 -1.1071,2.4715 -2.4714,2.4715 -1.3643,0 -2.4715,-1.1072 -2.4715,-2.4715 0,-1.3643 1.1072,-2.4715 2.4715,-2.4715 z m 49.7385,-29.3488 c 1.3643,0 2.4715,1.1072 2.4715,2.4715 0,1.3643 -1.1072,2.4715 -2.4715,2.4715 -1.3643,0 -2.4715,-1.1072 -2.4715,-2.4715 0,-1.3643 1.1072,-2.4715 2.4715,-2.4715 z"
     style="fill:#009ee0;fill-rule:evenodd"
     id="path15" />
  <path
     d="m 373.312,186.1648 -49.2689,29.2435 0.3179,26.7006 48.6332,23.5219 65.7978,-76.6052 47.3617,27.0184 0.3178,21.6148 -53.719,31.7863 -0.6357,43.8652"
     style="fill:none"
     id="path16" />
  <path
     d="m 373.4843,186.4568 -49.0992,29.1426 0.1509,26.2961 48.3707,23.3165 65.6272,-76.4069 0.1822,-0.2134 0.2437,0.1393 47.3617,27.0184 0.1679,0.0955 0.004,0.1956 0.3178,21.6147 0.003,0.1946 -0.1696,0.1009 -53.5547,31.6891 -0.2706,43.5768 -0.6786,-0.007 0.2733,-43.7679 0.003,-0.192 0.1643,-0.0964 53.5494,-31.6855 -0.3126,-21.2255 -46.95,-26.7835 -65.6148,76.3926 -0.1705,0.1982 -0.2349,-0.1134 -48.7947,-23.5219 -0.1902,-0.0919 -0.002,-0.2099 -0.1563,-26.7005 -0.003,-0.1956 0.1696,-0.1 49.2689,-29.2434 z"
     style="fill:#009ee0;fill-rule:evenodd"
     id="path17" />
</svg>
