<?xml version="1.0" encoding="UTF-8"?>
<svg xmlns="http://www.w3.org/2000/svg" width="64" height="64" viewBox="0 0 64 64">
  <defs>
    <linearGradient id="g" x1="0" y1="0" x2="1" y2="1">
      <stop offset="0" stop-color="#7c3aed"/>
      <stop offset="1" stop-color="#22d3ee"/>
    </linearGradient>
  </defs>
  <rect width="64" height="64" rx="16" fill="url(#g)"/>
  <circle cx="32" cy="32" r="20" fill="rgba(255,255,255,0.15)"/>
  <path d="M42 26c-2.5-4.1-7.1-6-12-4.9-6.1 1.3-10.1 7.2-8.8 13.3 1.3 6.1 7.2 10.1 13.3 8.8 3.1-.7 5.7-2.6 7.3-5.2l-4.4-2.3c-1 1.6-2.6 2.8-4.6 3.2-4 0.9-8-1.7-8.9-5.7-0.9-4 1.7-8 5.7-8.9 2.4-0.5 4.7 0 6.6 1.2L42 26z" fill="#fff"/>
</svg>
